# xmcd
#
# Track frame offsets:
#	150
#	13442
#	35792
#	61380
#	77511
#	102443
#	118041
#	131059
#	149063
#	171546
#	191358
#	214625
#	231740
#	246586
#	263865
#	283584
#	299681
#	321555
#
# Disc length: 4505 seconds
#
# Revision: 2
# Processed by: cddbd v1.5.2PL0 Copyright (c) Steve Scherf et al.
# Submitted via: EasyCDDAExtractor 16.0.8.2
#
DISCID=35119712
DTITLE=Άνευ ερμηνευτού - Jazz collection 04-Farlow Tal
DYEAR=2010
DGENRE=Ξένη jazz
TTITLE0=Tea for two
TTITLE1=Have you met miss Jones
TTITLE2=You stepped out of a dream
TTITLE3=My old flame
TTITLE4=I love you
TTITLE5=Strike up the band
TTITLE6=Tenderly
TTITLE7=How deep is the ocean
TTITLE8=Chuckles
TTITLE9=And she remembers me
TTITLE10=Anything goes
TTITLE11=There will never be another you
TTITLE12=Skylark
TTITLE13=Fascinating rhythm
TTITLE14=Night and day
TTITLE15=Stella by starlight
TTITLE16=The more i see you
TTITLE17=Topsy
EXTD=
EXTT0=
EXTT1=
EXTT2=
EXTT3=
EXTT4=
EXTT5=
EXTT6=
EXTT7=
EXTT8=
EXTT9=
EXTT10=
EXTT11=
EXTT12=
EXTT13=
EXTT14=
EXTT15=
EXTT16=
EXTT17=
PLAYORDER=
